<?xml version="1.0" encoding="UTF-8"?>
<svg id="Layer_2" data-name="Layer 2" xmlns="http://www.w3.org/2000/svg" viewBox="0 0 1577.32 1177.53">
  <defs>
    <style>
      .cls-1 {
        fill: #2563eb;
      }

      .cls-1, .cls-2, .cls-3, .cls-4, .cls-5 {
        stroke-width: 0px;
      }

      .cls-2 {
        fill: #77a2fa;
      }

      .cls-3 {
        fill: #00348f;
      }

      .cls-4 {
        fill: #00348f;
      }

      .cls-5 {
        fill: #fff;
      }
    </style>
  </defs>
  <g id="Layer_1-2" data-name="Layer 1">
    <g>
      <path class="cls-4" d="M400.76,1012.94c-5.47-.33-10.69-1.56-15.52-3.55,5.14,1.31,10.32,2.49,15.52,3.55Z"/>
      <path class="cls-5" d="M403.75,866.76c-25.33,0-48.41,9.65-65.76,25.47-13.54,12.35-23.6,28.45-28.51,46.67-1.64,6.07-2.71,12.38-3.14,18.86-.16,2.19-.23,4.41-.23,6.64,0,4.88.36,9.68,1.06,14.36,3.27,22.27,14.07,42.09,29.72,56.79h0c17.47,16.44,40.99,26.5,66.86,26.5,33.4,0,62.89-16.77,80.49-42.36,3.83-5.55,7.1-11.52,9.72-17.83,2.36-5.69,4.21-11.66,5.47-17.84,1.29-6.34,1.97-12.9,1.97-19.62,0-53.92-43.72-97.64-97.65-97.64ZM448.66,983.39c-2.77,6.48-6.9,12.23-12.03,16.91-8.67,7.91-20.21,12.73-32.88,12.73-1,0-2-.03-2.99-.09-5.47-.33-10.69-1.56-15.52-3.55-.02,0-.03,0-.04-.01-12.14-4.99-21.83-14.74-26.74-26.92-2.28-5.64-3.53-11.8-3.53-18.25,0-.72.02-1.43.05-2.14,1.12-25.97,22.53-46.68,48.77-46.68s48.82,21.86,48.82,48.82c0,6.81-1.39,13.29-3.91,19.18Z"/>
      <g>
        <path class="cls-1" d="M385.24,1009.39c4.83,1.99,10.05,3.22,15.52,3.55-5.2-1.06-10.38-2.24-15.52-3.55ZM385.24,1009.39c4.83,1.99,10.05,3.22,15.52,3.55-5.2-1.06-10.38-2.24-15.52-3.55ZM385.24,1009.39c4.83,1.99,10.05,3.22,15.52,3.55-5.2-1.06-10.38-2.24-15.52-3.55ZM385.24,1009.39c4.83,1.99,10.05,3.22,15.52,3.55-5.2-1.06-10.38-2.24-15.52-3.55ZM385.24,1009.39c4.83,1.99,10.05,3.22,15.52,3.55-5.2-1.06-10.38-2.24-15.52-3.55Z"/>
        <path class="cls-1" d="M433.96,789.53h-.01c-9.82-1.7-19.9-2.58-30.2-2.58-69.35,0-129.54,39.99-158.71,98.13-2.9,5.78-5.5,11.74-7.76,17.85-2.34,6.3-4.32,12.77-5.94,19.38-3.29,13.49-5.04,27.59-5.04,42.09,0,97.85,79.6,177.46,177.45,177.46,9.36,0,18.54-.73,27.51-2.13h.01c66.34-10.37,120.61-57.62,141.12-120.04,1.92-5.82,3.53-11.77,4.84-17.83,1.26-5.84,2.24-11.8,2.9-17.84.71-6.44,1.08-12.99,1.08-19.62,0-87.55-63.74-160.5-147.25-174.87ZM499.43,984.02c-1.26,6.18-3.11,12.15-5.47,17.84-2.62,6.31-5.89,12.28-9.72,17.83-17.6,25.59-47.09,42.36-80.49,42.36-25.87,0-49.39-10.06-66.86-26.49h0c-15.65-14.71-26.45-34.53-29.72-56.8-.7-4.68-1.06-9.48-1.06-14.36,0-2.23.07-4.45.23-6.64.43-6.48,1.5-12.79,3.14-18.86,4.91-18.22,14.97-34.32,28.51-46.67,17.35-15.82,40.43-25.47,65.76-25.47,53.93,0,97.65,43.72,97.65,97.64,0,6.72-.68,13.28-1.97,19.62Z"/>
      </g>
      <path class="cls-5" d="M400.76,1012.94c-5.47-.33-10.69-1.56-15.52-3.55,5.14,1.31,10.32,2.49,15.52,3.55Z"/>
      <path class="cls-3" d="M1570.93,678.48c-5.74-13.91-15.56-27.23-27.63-37.52-13.99-11.91-29.76-18.77-45.62-19.83-22.39-1.5-35.35,12.55-46.78,24.95-10.22,11.09-20.79,22.56-40.56,28.33-1.19.35-2.17.53-2.93.61.08-1.38.44-3.57,1.54-6.7,29.09-58.46,43.84-121.45,43.84-187.23,0-56.82-11.13-111.94-33.08-163.84-21.2-50.12-51.55-95.13-90.2-133.78-38.64-38.65-83.65-69-133.78-90.2-51.9-21.95-107.02-33.08-163.83-33.08-71.01,0-140.63,17.85-202.39,51.78-18.48-24.11-40.95-45.34-66.84-62.86-63.14-42.72-139.15-58.3-214.02-43.85-74.86,14.45-139.62,57.18-182.34,120.33-42.72,63.14-58.29,139.15-43.85,214.02,2.13,11.04,5.75,22.46,10.66,34.16-38.1,16.69-73.1,40.46-103.14,70.5-30.95,30.95-55.26,67-72.23,107.14-10.79,25.5-18.32,51.97-22.52,79.14-1.27,0-2.56.12-3.85.39-36.85,7.83-72.7-4.72-87.19-30.51-15.18-27.02-7.68-53.09,2.17-62.2,13.59-12.58,34.73-13.86,42.5-6.09,4.86,4.86,9.97,17.21-1.66,32.71-5.91,7.88-4.31,19.06,3.57,24.97s19.06,4.32,24.97-3.57c22.87-30.49,15.17-62.5-1.66-79.33-12.07-12.08-29.45-17.29-48.92-14.69-16.05,2.14-31.73,9.36-43.03,19.81-29.28,27.09-26.51,74.76-9.04,105.86,10.89,19.38,29.47,34.75,52.32,43.29,13.84,5.16,28.73,7.77,44.03,7.77,7.31,0,14.73-.6,22.16-1.79-.23,5.13-.35,10.28-.35,15.45,0,45.49,8.91,89.64,26.5,131.21,11.8,27.91,27.14,53.84,45.8,77.45-8.36,22.82-12.92,47.45-12.92,73.12,0,117.52,95.61,213.13,213.12,213.13,31.25,0,60.94-6.76,87.7-18.9h.01c9.04,1.29,18.29,1.95,27.69,1.95,88.98,0,164.06-59.51,187.61-140.89h62.93c12.19,89.02,88.76,157.84,181.08,157.84,29.57,0,57.53-7.06,82.27-19.59,1.63.05,3.26.07,4.89.07,91.1,0,164.95-73.85,164.95-164.95,0-9.85-.86-19.49-2.52-28.86,18.96-12.51,36.66-26.96,52.94-43.24,9.91-9.92,19.25-20.5,27.86-31.56,41.45,7.99,84.32,7.41,124.72-1.76,47.62-10.8,88.38-33.07,117.86-64.39,6.67-7.08,23.57-26.19,36.52-50.56,18.25-34.36,21.94-66.94,10.67-94.21ZM580.13,984.02c-.66,6.04-1.64,12-2.9,17.84-1.31,6.06-2.92,12.01-4.84,17.83-20.51,62.42-74.78,109.67-141.12,120.04h-.01c-8.97,1.4-18.15,2.13-27.51,2.13-97.85,0-177.45-79.61-177.45-177.46,0-14.5,1.75-28.6,5.04-42.09,1.62-6.61,3.6-13.08,5.94-19.38,2.26-6.11,4.86-12.07,7.76-17.85,29.17-58.14,89.36-98.13,158.71-98.13,10.3,0,20.38.88,30.2,2.58h.01c83.51,14.37,147.25,87.32,147.25,174.87,0,6.63-.37,13.18-1.08,19.62ZM1097.13,1009.62c-6.99,69.41-62.45,124.74-131.92,131.54h-.01c-4.75.46-9.56.7-14.43.7-72.61,0-133.11-52.89-144.99-122.17-1.01-5.83-1.66-11.78-1.95-17.83-.11-2.36-.17-4.73-.17-7.11,0-3.61.13-7.19.39-10.73,5.51-76.13,69.22-136.38,146.72-136.38,2.94,0,5.86.09,8.76.26,69.77,4.12,126.61,57.07,136.74,125.08.88,5.9,1.41,11.91,1.56,18.01.03,1.25.05,2.5.05,3.76,0,5.02-.25,9.98-.75,14.87ZM1528.76,755.95c-10.92,20.56-25.31,36.82-30.99,42.85-24.6,26.14-59.11,44.83-99.79,54.06-38.35,8.7-81.03,8.47-120.19-.64h-.01c-7.77-1.82-15.38-3.96-22.66-6.39-13.7-4.57-26.97-10.37-39.47-17.25h0c-18.36-10.09-34.39-22.1-48.33-34.98-24.64-22.78-42.75-48.31-55.64-70.87-17.51-30.64-25.41-55.81-26.99-61.2-2.78-9.45-12.7-14.85-22.15-12.07-9.45,2.77-14.85,12.69-12.07,22.14,2.58,8.78,12.72,40.27,34.81,76.78,29.63,48.96,67.7,86.45,113.18,111.45,0,.01.01.01.01.01.05.03.11.06.16.08,14.13,7.78,29.14,14.34,44.58,19.53-4.84,5.62-9.9,11.06-15.13,16.29-12.01,12.01-24.84,22.88-38.39,32.55-18.53,13.25-38.38,24.26-59.22,32.9-11.01-59.11-50.57-108.31-103.78-132.7h-.01c-23.13-10.61-48.84-16.52-75.9-16.52-97.18,0-176.89,76.23-182.47,172.05h-152.32c.6-6.46.9-13.01.9-19.62,0-85.1-50.14-158.71-122.43-192.84-27.53-13.01-58.28-20.28-90.7-20.28-77.52,0-145.5,41.6-182.8,103.66-35.12-50.18-54.03-109.79-54.03-172.32,0-80.51,31.35-156.2,88.28-213.13,27.31-27.31,59.21-48.83,93.95-63.79,48.09,83.06,147.66,175.14,232.11,244.36,21.18,17.36,47.36,26.59,74.2,26.59,7.42,0,14.89-.71,22.32-2.14,34.3-6.62,63.64-27.98,80.48-58.6,15.6-28.35,30.1-56.22,43.11-82.85,4.32-8.85.65-19.53-8.2-23.85-.89-.44-1.81-.79-2.73-1.06-8.21-2.47-17.24,1.3-21.12,9.26-12.76,26.11-26.99,53.46-42.31,81.3-11.72,21.31-32.13,36.17-55.99,40.77-23.86,4.61-48.34-1.59-67.15-17.01-107.25-87.89-182.94-166.75-220.67-229.05-3.29-5.44-6.3-10.75-9.01-15.93-2.92-5.57-5.49-10.99-7.72-16.25-4.27-10.05-7.27-19.53-8.98-28.39-12.64-65.51.98-132.02,38.37-187.28,37.38-55.25,94.04-92.65,159.55-105.29,65.51-12.64,132.02.99,187.28,38.38,26.4,17.85,48.71,40.11,66.19,65.63.12.17.24.34.35.51.43.61.84,1.23,1.25,1.86.02,0,.02.02.02.03,18.27,27.32,31.06,58.29,37.47,91.53.81,4.21,1.41,8.68,1.76,13.29.59,7.57,5.83,13.66,12.69,15.7,2.04.62,4.22.87,6.47.7,9.82-.76,17.17-9.34,16.41-19.16-.46-5.94-1.24-11.76-2.31-17.29-6.19-32.08-17.57-62.3-33.53-89.73,55.82-30.07,118.5-45.87,182.44-45.87,52.01,0,102.46,10.18,149.94,30.26,45.87,19.41,87.07,47.19,122.45,82.57,35.39,35.38,63.17,76.58,82.57,122.45,20.08,47.49,30.26,97.93,30.26,149.95,0,60.53-13.63,118.47-40.53,172.18-.28.57-.53,1.14-.75,1.73-9.28,24.77-.95,38.94,4.84,45.18,9.31,10.02,23.76,13.11,39.66,8.47,29.28-8.54,45.18-25.8,56.79-38.39,10.08-10.94,13.45-13.85,18.17-13.54,18.06,1.2,35.87,18.94,42.67,35.38,7.17,17.36,4.07,38.85-9.21,63.85Z"/>
      <path class="cls-1" d="M1097.83,990.99c-.15-6.1-.68-12.11-1.56-18.01-10.13-68.01-66.97-120.96-136.74-125.08-2.9-.17-5.82-.26-8.76-.26-77.5,0-141.21,60.25-146.72,136.38-.26,3.54-.39,7.12-.39,10.73,0,2.38.06,4.75.17,7.11.29,6.05.94,12,1.95,17.83,11.88,69.28,72.38,122.17,144.99,122.17,4.87,0,9.68-.24,14.43-.7h.01c69.47-6.8,124.93-62.13,131.92-131.54.5-4.89.75-9.85.75-14.87,0-1.26-.02-2.51-.05-3.76ZM1013.35,1001.86c-.74,6.27-2.42,12.27-4.89,17.83-9.73,21.97-31.73,37.3-57.3,37.3s-47.57-15.33-57.29-37.3c-2.47-5.56-4.15-11.56-4.89-17.83-.3-2.46-.45-4.96-.45-7.5,0-3.52.29-6.98.86-10.34,4.92-29.67,30.7-52.29,61.77-52.29s56.86,22.62,61.78,52.29c.57,3.36.86,6.82.86,10.34,0,2.54-.15,5.04-.45,7.5Z"/>
      <path class="cls-5" d="M1013.8,994.36c0,2.54-.15,5.04-.45,7.5-.74,6.27-2.42,12.27-4.89,17.83-9.73,21.97-31.73,37.3-57.3,37.3s-47.57-15.33-57.29-37.3c-2.47-5.56-4.15-11.56-4.89-17.83-.3-2.46-.45-4.96-.45-7.5,0-3.52.29-6.98.86-10.34,4.92-29.67,30.7-52.29,61.77-52.29s56.86,22.62,61.78,52.29c.57,3.36.86,6.82.86,10.34Z"/>
      <g>
        <path class="cls-3" d="M452.57,964.21c0,6.81-1.39,13.29-3.91,19.18-2.77,6.48-6.9,12.23-12.03,16.91-8.67,7.91-20.21,12.73-32.88,12.73-1,0-2-.03-2.99-.09-5.2-1.06-10.38-2.24-15.52-3.55-.02,0-.03,0-.04-.01-12.14-4.99-21.83-14.74-26.74-26.92-2.28-5.64-3.53-11.8-3.53-18.25,0-.72.02-1.43.05-2.14,1.12-25.97,22.53-46.68,48.77-46.68s48.82,21.86,48.82,48.82Z"/>
        <path class="cls-3" d="M400.76,1012.94c-5.47-.33-10.69-1.56-15.52-3.55,5.14,1.31,10.32,2.49,15.52,3.55Z"/>
      </g>
      <g>
        <path class="cls-2" d="M809.23,144.8c-.11-.17-.23-.34-.35-.51.07.13.15.27.23.4.03.04.05.09.08.13.4.65.83,1.26,1.29,1.84-.41-.63-.82-1.25-1.25-1.86Z"/>
        <path class="cls-2" d="M1286.35,472.21c-29.39,0-53.22,23.82-53.22,53.21s23.83,53.22,53.22,53.22,53.22-23.83,53.22-53.22-23.83-53.21-53.22-53.21ZM1064.29,472.21c-29.39,0-53.22,23.82-53.22,53.21s23.83,53.22,53.22,53.22,53.22-23.83,53.22-53.22-23.83-53.21-53.22-53.21Z"/>
        <path class="cls-2" d="M1537.97,692.1c-6.8-16.44-24.61-34.18-42.67-35.38-4.72-.31-8.09,2.6-18.17,13.54-11.61,12.59-27.51,29.85-56.79,38.39-15.9,4.64-30.35,1.55-39.66-8.47-5.79-6.24-14.12-20.41-4.84-45.18.22-.59.47-1.16.75-1.73,26.9-53.71,40.53-111.65,40.53-172.18,0-52.02-10.18-102.46-30.26-149.95-19.4-45.87-47.18-87.07-82.57-122.45-35.38-35.38-76.58-63.16-122.45-82.57-47.48-20.08-97.93-30.26-149.94-30.26-63.94,0-126.62,15.8-182.44,45.87,15.96,27.43,27.34,57.65,33.53,89.73,1.07,5.53,1.85,11.35,2.31,17.29.76,9.82-6.59,18.4-16.41,19.16-2.25.17-4.43-.08-6.47-.7-6.86-2.04-12.1-8.13-12.69-15.7-.35-4.61-.95-9.08-1.76-13.29-6.41-33.24-19.2-64.21-37.47-91.53,0-.01,0-.02-.02-.03-.46-.58-.89-1.19-1.29-1.84-.03-.04-.05-.09-.08-.13-.08-.13-.16-.27-.23-.4-17.48-25.52-39.79-47.78-66.19-65.63-55.26-37.39-121.77-51.02-187.28-38.38-65.51,12.64-122.17,50.04-159.55,105.29-37.39,55.26-51.01,121.77-38.37,187.28,1.71,8.86,4.71,18.34,8.98,28.39,2.23,5.26,4.8,10.68,7.72,16.25,2.71,5.18,5.72,10.49,9.01,15.93,37.73,62.3,113.42,141.16,220.67,229.05,18.81,15.42,43.29,21.62,67.15,17.01,23.86-4.6,44.27-19.46,55.99-40.77,15.32-27.84,29.55-55.19,42.31-81.3,3.88-7.96,12.91-11.73,21.12-9.26.92.27,1.84.62,2.73,1.06,8.85,4.32,12.52,15,8.2,23.85-13.01,26.63-27.51,54.5-43.11,82.85-16.84,30.62-46.18,51.98-80.48,58.6-7.43,1.43-14.9,2.14-22.32,2.14-26.84,0-53.02-9.23-74.2-26.59-84.45-69.22-184.02-161.3-232.11-244.36-34.74,14.96-66.64,36.48-93.95,63.79-56.93,56.93-88.28,132.62-88.28,213.13,0,62.53,18.91,122.14,54.03,172.32,37.3-62.06,105.28-103.66,182.8-103.66,32.42,0,63.17,7.27,90.7,20.28,72.29,34.13,122.43,107.74,122.43,192.84,0,6.61-.3,13.16-.9,19.62h152.32c5.58-95.82,85.29-172.05,182.47-172.05,27.06,0,52.77,5.91,75.9,16.52h.01c53.21,24.39,92.77,73.59,103.78,132.7,20.84-8.64,40.69-19.65,59.22-32.9,13.55-9.67,26.38-20.54,38.39-32.55,5.23-5.23,10.29-10.67,15.13-16.29-15.44-5.19-30.45-11.75-44.58-19.53-.05-.02-.11-.05-.16-.08,0,0-.01,0-.01-.01-45.48-25-83.55-62.49-113.18-111.45-22.09-36.51-32.23-68-34.81-76.78-2.78-9.45,2.62-19.37,12.07-22.14,9.45-2.78,19.37,2.62,22.15,12.07,1.58,5.39,9.48,30.56,26.99,61.2,12.89,22.56,31,48.09,55.64,70.87,13.94,12.88,29.97,24.89,48.33,34.98h0c12.5,6.88,25.77,12.68,39.47,17.25,7.28,2.43,14.89,4.57,22.66,6.39h.01c39.16,9.11,81.84,9.34,120.19.64,40.68-9.23,75.19-27.92,99.79-54.06,5.68-6.03,20.07-22.29,30.99-42.85,13.28-25,16.38-46.49,9.21-63.85ZM701.79,354.23c-18.38,26.51-45.88,44.21-77.44,49.82-7.07,1.26-14.17,1.88-21.22,1.88-24.16,0-47.73-7.31-68.01-21.36-17.47-12.09-31.12-28.22-39.99-46.93-4.47-9.39-7.73-19.43-9.66-29.94-5.79-31.48,1.13-63.4,19.5-89.89,18.38-26.51,45.87-44.2,77.42-49.82,31.34-5.59,63.03,1.33,89.22,19.46,10.33,7.15,19.33,15.71,26.79,25.4,11.5,14.9,19.37,32.43,22.88,51.47,1.34,7.26,2,14.55,2,21.78,0,24.14-7.36,47.74-21.49,68.13ZM1064.29,578.64c-29.39,0-53.22-23.83-53.22-53.22s23.83-53.21,53.22-53.21,53.22,23.82,53.22,53.21-23.83,53.22-53.22,53.22ZM1286.35,578.64c-29.39,0-53.22-23.83-53.22-53.22s23.83-53.21,53.22-53.21,53.22,23.82,53.22,53.21-23.83,53.22-53.22,53.22Z"/>
      </g>
      <path class="cls-3" d="M721.28,264.32c-3.51-19.04-11.38-36.57-22.88-51.47-7.46-9.69-16.46-18.25-26.79-25.4-26.19-18.13-57.88-25.05-89.22-19.46-31.55,5.62-59.04,23.31-77.42,49.82-18.37,26.49-25.29,58.41-19.5,89.89,1.93,10.51,5.19,20.55,9.66,29.94,8.87,18.71,22.52,34.84,39.99,46.93,20.28,14.05,43.85,21.36,68.01,21.36,7.05,0,14.15-.62,21.22-1.88,31.56-5.61,59.06-23.31,77.44-49.82,14.13-20.39,21.49-43.99,21.49-68.13,0-7.23-.66-14.52-2-21.78ZM672.48,333.91c-12.94,18.65-32.24,31.08-54.38,35.02-39.28,6.99-77.31-14.76-92.29-50.12-2.35-5.54-4.13-11.41-5.26-17.56-4.06-22.08.82-44.49,13.73-63.12,12.93-18.64,32.24-31.08,54.36-35.03,4.95-.88,9.87-1.3,14.73-1.3,25.12,0,48.55,11.36,64.3,29.91,9.2,10.84,15.78,24.14,18.53,39.07,4.07,22.08-.81,44.49-13.72,63.13Z"/>
      <path class="cls-5" d="M672.48,333.91c-12.94,18.65-32.24,31.08-54.38,35.02-39.28,6.99-77.31-14.76-92.29-50.12-2.35-5.54-4.13-11.41-5.26-17.56-4.06-22.08.82-44.49,13.73-63.12,12.93-18.64,32.24-31.08,54.36-35.03,4.95-.88,9.87-1.3,14.73-1.3,25.12,0,48.55,11.36,64.3,29.91,9.2,10.84,15.78,24.14,18.53,39.07,4.07,22.08-.81,44.49-13.72,63.13Z"/>
      <path class="cls-3" d="M1117.51,525.42c0,29.39-23.83,53.22-53.22,53.22s-53.22-23.83-53.22-53.22,23.83-53.21,53.22-53.21,53.22,23.82,53.22,53.21Z"/>
      <path class="cls-3" d="M1339.57,525.42c0,29.39-23.83,53.22-53.22,53.22s-53.22-23.83-53.22-53.22,23.83-53.21,53.22-53.21,53.22,23.82,53.22,53.21Z"/>
      <circle class="cls-5" cx="1085.15" cy="507.87" r="20.65"/>
      <circle class="cls-5" cx="1307.14" cy="507.87" r="20.65"/>
    </g>
  </g>
</svg>